<svg xmlns="http://www.w3.org/2000/svg" viewBox="0 0 581.34 116.56">
  <defs>
    <style>
      .logo_colour {
        fill: #cabc3c;
      }
    </style>
  </defs>
  <g id="Layer_2" data-name="Layer 2">
    <g id="Layer_1-2" data-name="Layer 1">
      <g id="papillon">
        <path id="p" class="logo_colour" d="M22,2.32c19.54,0,29.8,10.43,29.8,31.79,0,22.35-12.25,33.78-32.45,33.78H14.24v46.52H0V2.32ZM19.21,64.9c10.43,0,16.89-9.76,16.89-30.3S30.3,5.3,19.37,5.3H14.24V64.9Z"/>
        <path id="a" class="logo_colour" d="M105.47,76.16H79.15l-8.61,38.25H67.06L90.73,9.77,89.08,2.32h14.73l24.84,112.09H113.92Zm-.66-3-12.42-56-12.58,56Z"/>
        <path id="p-2" data-name="p" class="logo_colour" d="M178.16,2.32c19.54,0,29.8,10.43,29.8,31.79,0,22.35-12.25,33.78-32.45,33.78h-5.13v46.52H156.14V2.32ZM175.34,64.9c10.44,0,16.89-9.76,16.89-30.3S186.44,5.3,175.51,5.3h-5.13V64.9Z"/>
        <path id="i" class="logo_colour" d="M236.61,114.41V2.32h14.24V114.41Z"/>
        <path id="l" class="logo_colour" d="M334.63,114.41h-49V2.32h14.24V111.43h34.77Z"/>
        <path id="l-2" data-name="l" class="logo_colour" d="M409.47,114.41h-49V2.32H374.7V111.43h34.77Z"/>
        <path id="o" class="logo_colour" d="M495.07,58.12c0,38.41-12.09,58.44-34.94,58.44-23,0-35.1-19.87-35.1-58.11C425,20,437.28,0,460.47,0,483.15,0,495.07,19.87,495.07,58.12ZM440.6,58c0,36.59,6.62,55.63,19.53,55.63,12.75,0,19.38-18.38,19.38-55S472.88,3,460,3,440.6,21.86,440.6,58Z"/>
        <path id="n" class="logo_colour" d="M581.34,2.32V114.41H566.6L529.84,20v94.38h-3.31V12.75L522.39,2.32h15.07L578,105.64V2.32Z"/>
      </g>
    </g>
  </g>
</svg>
